# xmcd CD database file
#
# Track frame offsets:
#	150
#	16788
#	33055
#	50954
#	76034
#	92909
#	105824
#	131030
#	147595
#	168067
#	185290
#	203352
#	220032
#	231823
#	243082
#	257120
#	270592
#	291270
#
# Disc length: 4137 seconds
#
# Revision: 1
# Processed by: cddbd v1.5.2PL0 Copyright (c) Steve Scherf et al.
# Submitted via: CDex 1.70beta2
#
DISCID=e8102712
DTITLE=Various Artist - ACT: Jazz Is Cool - Magic Moments 4
DYEAR=2010
DGENRE=Jazz
TTITLE0=Wolfgang Haffner and Sebastian Studnitzky - Azul
TTITLE1=Roberto Di Gioia's Marsmobil and Wigald Boning - Sir Revival
TTITLE2=Ida Sand and Lars Danielsson - Brutal Truth
TTITLE3=Chris Gall Trio and Nils Landgren - Blues Panic
TTITLE4=Solveig Slettahjell Slow Motion Quintet - We Were Indians
TTITLE5=E.S.T. - Spam-Boo-Limbo
TTITLE6=Landgren, Sendecki, Danielsson and NDR Big Band - Fragile
TTITLE7=Jan Lundgren Trio - Yo Vivo Enamorao
TTITLE8=Oddjob - Hang 'Em High
TTITLE9=Josefine Cronholm and Factum Est? - Silver White Man
TTITLE10=Danielsson, Mozdzer, Eick and Harland - The Madonna
TTITLE11=Youn Sun Nah and Ulf Wakenius - Jockey Full Of Bourbon
TTITLE12=Vijay Iyer Trio - Galang (Trio Riot Version)
TTITLE13=Cèline Bonacina Trio - ZigZag Blues
TTITLE14=Knut Rössler, Johannes Vogt and Between The Times - Si Ay Perdut Mon Sabre
TTITLE15=Dan Berglund's Tonbruket - The Wind And The Leaves
TTITLE16=Jessica Pilnäs, Dan Berglund and Wolfgang Haffner - There Must Be An Angel
TTITLE17=Mc Jazz, Humpe, Kluge, Weniger and Burkhardt - Nach Hause
EXTD=YEAR: 2010
EXTT0=
EXTT1=
EXTT2=
EXTT3=
EXTT4=
EXTT5=
EXTT6=
EXTT7=
EXTT8=
EXTT9=
EXTT10=
EXTT11=
EXTT12=
EXTT13=
EXTT14=
EXTT15=
EXTT16=
EXTT17=
PLAYORDER=
